# This file uses centimeters as units for non-parametric coordinates.

mtllib small frame HP.mtl
g default
v 0.000000 2.302903 2.489386
v 0.000000 2.003082 2.489386
v 0.000000 2.302903 2.189565
v 0.000000 2.003082 2.189565
v 0.000000 2.320888 2.507372
v 0.000000 1.985096 2.507372
v 0.000000 2.320888 2.171580
v 0.000000 1.985096 2.171580
v 0.004523 2.303581 2.490064
v 0.004433 2.303242 2.489725
v 0.004184 2.302993 2.489476
v 0.003845 2.302903 2.489386
v 0.003845 2.003082 2.489386
v 0.004184 2.002991 2.489476
v 0.004433 2.002743 2.489725
v 0.004523 2.002403 2.490064
v 0.003845 2.320888 2.507372
v 0.004184 2.320797 2.507281
v 0.004433 2.320549 2.507032
v 0.004523 2.320210 2.506693
v 0.004523 1.985774 2.506693
v 0.004433 1.985435 2.507032
v 0.004184 1.985187 2.507281
v 0.003845 1.985096 2.507372
v 0.004523 2.303581 2.188887
v 0.004433 2.303242 2.189226
v 0.004184 2.302993 2.189475
v 0.003845 2.302903 2.189565
v 0.003845 2.320888 2.171580
v 0.004184 2.320797 2.171671
v 0.004433 2.320549 2.171919
v 0.004523 2.320210 2.172258
v 0.003845 2.003082 2.189565
v 0.004184 2.002991 2.189475
v 0.004433 2.002743 2.189226
v 0.004523 2.002403 2.188887
v 0.004523 1.985774 2.172258
v 0.004433 1.985435 2.171919
v 0.004184 1.985187 2.171671
v 0.003845 1.985096 2.171580
vt 0.908349 0.908859
vt 0.908219 0.087801
vt 0.087161 0.087932
vt 0.087291 0.908990
vt 0.067866 0.932292
vt 0.018195 0.023414
vt 0.929788 0.929827
vt 0.020910 0.979497
vt 0.065401 0.070371
vt 0.974277 0.020699
vt 0.927323 0.067905
vt 0.976993 0.976782
vt 0.077967 0.922062
vt 0.068572 0.073513
vt 0.010786 0.989742
vt 0.017763 0.982671
vt 0.919559 0.919725
vt 0.071009 0.929120
vt 0.987237 0.986906
vt 0.980166 0.979929
vt 0.075630 0.080472
vt 0.924179 0.071076
vt 0.007950 0.013291
vt 0.015021 0.020268
vt 0.917221 0.078134
vt 0.926616 0.926683
vt 0.984402 0.010455
vt 0.977424 0.017526
vt 0.069080 0.931067
vt 0.070160 0.929977
vt 0.067706 0.072656
vt 0.066607 0.071567
vt 0.018624 0.981802
vt 0.019707 0.980710
vt 0.016916 0.022144
vt 0.015798 0.021033
vt 0.928563 0.928612
vt 0.927473 0.927532
vt 0.979405 0.979176
vt 0.978420 0.978203
vt 0.924970 0.070275
vt 0.925993 0.069242
vt 0.975524 0.019442
vt 0.976585 0.018373
vn 1.000000 -0.000000 -0.000000
vn 1.000000 -0.000000 -0.000000
vn 1.000000 -0.000000 -0.000000
vn 1.000000 -0.000000 -0.000000
vn 0.024814 0.000000 -0.999692
vn 0.258149 0.000000 -0.966105
vn 0.258149 0.000000 -0.966105
vn 0.024837 0.000000 -0.999691
vn 0.707729 0.000000 -0.706484
vn 0.955617 -0.208331 -0.208314
vn 0.955585 0.208281 -0.208512
vn 0.707729 0.000000 -0.706484
vn 0.999999 -0.000876 -0.000875
vn 0.999999 0.000876 -0.000875
vn 0.999935 0.008056 0.008058
vn 0.881885 0.333383 0.333369
vn 0.881947 -0.333238 0.333348
vn 0.999935 -0.008057 0.008057
vn 0.706911 -0.000000 0.707303
vn 0.706911 -0.000000 0.707303
vn 0.259665 0.000000 0.965699
vn 0.018514 0.000000 0.999829
vn 0.018525 0.000000 0.999828
vn 0.259665 0.000000 0.965699
vn 0.999999 -0.000876 0.000876
vn 0.999935 0.008057 -0.008057
vn 0.999999 0.000876 0.000876
vn 0.999935 -0.008058 -0.008056
vn 0.000000 0.000000 -1.000000
vn 0.000000 0.000000 -1.000000
vn 0.000000 0.000000 1.000000
vn 0.000000 0.000000 1.000000
vn 0.000019 -1.000000 0.000000
vn 0.000019 -1.000000 0.000000
vn 0.024787 -0.999693 0.000000
vn 0.024783 -0.999693 0.000000
vn -0.000021 1.000000 0.000000
vn -0.000021 1.000000 0.000000
vn 0.018460 0.999830 0.000000
vn 0.018475 0.999829 0.000000
vn 0.000009 1.000000 0.000000
vn 0.000009 1.000000 0.000000
vn 0.024944 0.999689 0.000000
vn 0.024949 0.999689 0.000000
vn -0.000120 -1.000000 -0.000000
vn -0.000120 -1.000000 -0.000000
vn 0.018323 -0.999832 0.000000
vn 0.018309 -0.999832 0.000000
vn 0.000000 0.000000 1.000000
vn 0.000000 0.000000 1.000000
vn 0.024875 0.000000 0.999691
vn 0.024856 0.000000 0.999691
vn 0.000000 0.000000 -1.000000
vn 0.000000 0.000000 -1.000000
vn 0.018425 0.000000 -0.999830
vn 0.018436 0.000000 -0.999830
vn 0.257601 -0.966251 -0.000000
vn 0.257601 -0.966251 -0.000000
vn 0.955615 -0.208373 0.208281
vn 0.707782 -0.706431 -0.000000
vn 0.707781 -0.706431 -0.000000
vn 0.955585 0.208348 0.208443
vn 0.259263 0.965807 0.000000
vn 0.259263 0.965807 0.000000
vn 0.706868 0.707346 0.000000
vn 0.706868 0.707346 0.000000
vn 0.881972 0.333315 -0.333206
vn 0.259295 0.965798 0.000000
vn 0.259295 0.965798 0.000000
vn 0.706910 0.707304 0.000000
vn 0.706910 0.707304 0.000000
vn 0.258529 -0.966004 0.000000
vn 0.258529 -0.966004 0.000000
vn 0.882034 -0.333170 -0.333186
vn 0.707337 -0.706877 0.000000
vn 0.707337 -0.706877 0.000000
vn 0.707323 0.000000 0.706891
vn 0.707323 0.000000 0.706891
vn 0.258529 0.000000 0.966004
vn 0.258529 0.000000 0.966004
vn 0.258528 0.000000 -0.966004
vn 0.258528 0.000000 -0.966004
vn 0.707323 0.000000 -0.706891
vn 0.707323 0.000000 -0.706891
s off
g pPlane1
usemtl initialShadingGroup
f 1/4/1 2/3/2 4/2/3 3/1/4
s 1
f 12/18/5 11/30/6 14/31/7 13/14/8
s 2
f 11/30/9 10/29/10 15/32/11 14/31/12
f 10/29/10 9/5/13 16/9/14 15/32/11
f 20/8/15 19/34/16 22/35/17 21/6/18
f 19/34/16 18/33/19 23/36/20 22/35/17
s 4
f 18/33/21 17/16/22 24/24/23 23/36/24
s 2
f 16/9/14 9/5/13 20/8/15 21/6/18
f 9/5/13 25/7/25 32/12/26 20/8/15
f 36/11/27 16/9/14 21/6/18 37/10/28
f 25/7/25 36/11/27 37/10/28 32/12/26
s 1
f 2/21/29 1/13/30 12/18/5 13/14/8
s 4
f 5/15/31 6/23/32 24/24/23 17/16/22
s 5
f 1/13/33 3/17/34 28/26/35 12/18/36
s 6
f 7/19/37 5/15/38 17/16/39 29/20/40
s 7
f 4/25/41 2/21/42 13/14/43 33/22/44
s 8
f 6/23/45 8/27/46 40/28/47 24/24/48
s 9
f 3/17/49 4/25/50 33/22/51 28/26/52
s 10
f 8/27/53 7/19/54 29/20/55 40/28/56
s 5
f 11/30/57 12/18/36 28/26/35 27/38/58
s 2
f 9/5/13 10/29/10 26/37/59 25/7/25
f 10/29/10 11/30/60 27/38/61 26/37/59
f 15/32/11 16/9/14 36/11/27 35/42/62
s 7
f 13/14/43 14/31/63 34/41/64 33/22/44
s 2
f 14/31/65 15/32/11 35/42/62 34/41/66
f 19/34/16 20/8/15 32/12/26 31/40/67
s 6
f 17/16/39 18/33/68 30/39/69 29/20/40
s 2
f 18/33/70 19/34/16 31/40/67 30/39/71
s 8
f 23/36/72 24/24/48 40/28/47 39/44/73
s 2
f 21/6/18 22/35/17 38/43/74 37/10/28
f 22/35/17 23/36/75 39/44/76 38/43/74
f 25/7/25 26/37/59 35/42/62 36/11/27
f 26/37/59 27/38/77 34/41/78 35/42/62
s 9
f 27/38/79 28/26/52 33/22/51 34/41/80
s 10
f 29/20/55 30/39/81 39/44/82 40/28/56
s 2
f 30/39/83 31/40/67 38/43/74 39/44/84
f 31/40/67 32/12/26 37/10/28 38/43/74
