# This file uses centimeters as units for non-parametric coordinates.

mtllib small frame LP.mtl
g default
v 0.000000 2.302903 2.489386
v 0.000000 2.003082 2.489386
v 0.000000 2.302903 2.189565
v 0.000000 2.003082 2.189565
v 0.000000 2.320888 2.507372
v 0.000000 1.985096 2.507372
v 0.000000 2.320888 2.171580
v 0.000000 1.985096 2.171580
v 0.004523 2.302903 2.489386
v 0.004523 2.003082 2.489386
v 0.004523 2.320888 2.507372
v 0.004523 1.985096 2.507372
v 0.004523 2.302903 2.189565
v 0.004523 2.320888 2.171580
v 0.004523 2.003082 2.189565
v 0.004523 1.985096 2.171580
vt 0.077967 0.922063
vt 0.075629 0.080472
vt 0.917221 0.078134
vt 0.919559 0.919725
vt 0.067326 0.072286
vt 0.069781 0.930366
vt 0.018994 0.981423
vt 0.016269 0.021499
vt 0.927862 0.927911
vt 0.978919 0.978698
vt 0.925407 0.069831
vt 0.976193 0.018773
vt 0.010786 0.989742
vt 0.007950 0.013291
vt 0.987237 0.986906
vt 0.984402 0.010455
vt 0.908349 0.908859
vt 0.908219 0.087801
vt 0.087161 0.087932
vt 0.087291 0.908990
vn 1.000000 -0.000000 -0.000000
vn 1.000000 -0.000000 -0.000000
vn 1.000000 -0.000000 -0.000000
vn 1.000000 -0.000000 -0.000000
vn 0.993803 0.078600 -0.078600
vn 0.993803 -0.078600 -0.078600
vn 0.936080 0.248750 0.248750
vn 0.936081 -0.248753 0.248748
vn 0.993803 -0.078600 0.078600
vn 0.936080 0.248751 -0.248751
vn 0.993803 0.078600 0.078600
vn 0.936080 -0.248754 -0.248748
vn -0.000000 0.707107 -0.707107
vn 0.000000 -0.707107 -0.707107
vn -0.000000 0.707107 0.707107
vn -0.000022 -0.707100 0.707114
vn 0.000000 -0.707107 0.707107
vn -0.000000 0.707107 -0.707107
vn -0.000000 0.707107 0.707107
vn -0.000022 -0.707100 -0.707114
s off
g pPlane1
usemtl initialShadingGroup
f 1/20/1 2/19/2 4/18/3 3/17/4
s 1
f 10/5/5 9/6/6 11/7/7 12/8/8
f 9/6/6 13/9/9 14/10/10 11/7/7
f 15/11/11 10/5/5 12/8/8 16/12/12
f 13/9/9 15/11/11 16/12/12 14/10/10
f 2/2/13 1/1/14 9/6/6 10/5/5
f 5/13/15 6/14/16 12/8/8 11/7/7
f 1/1/14 3/4/17 13/9/9 9/6/6
f 7/15/18 5/13/15 11/7/7 14/10/10
f 4/3/19 2/2/13 10/5/5 15/11/11
f 6/14/16 8/16/20 16/12/12 12/8/8
f 3/4/17 4/3/19 15/11/11 13/9/9
f 8/16/20 7/15/18 14/10/10 16/12/12
