# This file uses centimeters as units for non-parametric coordinates.

mtllib 2.mtl
g default
v -0.155721 0.000000 0.036042
v 0.000000 0.000000 0.036042
v -0.155721 1.000000 0.036042
v 0.000000 1.000000 0.036042
v -1.000000 0.000000 0.000000
v -0.155721 0.000000 0.000000
v -0.155721 1.000000 0.000000
v -1.000000 1.000000 0.000000
v 0.000000 0.000000 0.000000
v 0.000000 1.000000 0.000000
vt -0.000000 0.006774
vt 0.782867 0.001439
vt 0.788766 0.994666
vt 0.005898 1.000000
vt 0.816287 0.001212
vt 0.960681 0.000228
vt 0.966580 0.993454
vt 0.822186 0.994438
vt 0.994102 0.000000
vt 1.000000 0.993227
vn 0.000000 0.000000 1.000000
vn 0.000000 0.000000 1.000000
vn 0.000000 0.000000 1.000000
vn 0.000000 0.000000 1.000000
vn 0.000000 0.000000 1.000000
vn 0.000000 0.000000 1.000000
vn 0.000000 0.000000 1.000000
vn 0.000000 0.000000 1.000000
vn -1.000000 0.000000 0.000000
vn -1.000000 0.000000 0.000000
vn -1.000000 0.000000 0.000000
vn -1.000000 0.000000 0.000000
vn 1.000000 0.000000 0.000000
vn 1.000000 0.000000 0.000000
vn 1.000000 0.000000 0.000000
vn 1.000000 0.000000 0.000000
s off
g pPlane1
usemtl initialShadingGroup
f 5/1/1 6/2/2 7/3/3 8/4/4
f 1/5/5 2/6/6 4/7/7 3/8/8
f 1/5/9 3/8/10 7/3/11 6/2/12
f 4/7/13 2/6/14 9/9/15 10/10/16
