# This file uses centimeters as units for non-parametric coordinates.

mtllib Stapler.mtl
g default
v -5.261843 1.392943 0.750000
v -3.286094 1.215379 0.750000
v -1.278870 1.689064 0.750000
v 0.573948 1.959028 0.750000
v 2.106956 2.076927 0.750000
v 4.087354 2.095150 0.750000
v -4.982108 2.022752 0.750000
v -3.286094 2.916650 0.750000
v -1.278870 3.300252 0.750000
v 0.573948 3.319956 0.750000
v 2.106956 3.249334 0.750000
v 3.649953 3.094702 0.750000
v -4.982108 2.022752 -0.750000
v -3.286094 2.916650 -0.750000
v -1.278870 3.300252 -0.750000
v 0.573948 3.319956 -0.750000
v 2.106956 3.249334 -0.750000
v 3.649954 3.094702 -0.750000
v -5.261843 1.392943 -0.750000
v -3.286094 1.215379 -0.750000
v -1.278870 1.689064 -0.750000
v 0.573948 1.959028 -0.750000
v 2.106956 2.076927 -0.750000
v 4.087354 2.095150 -0.750000
v -4.238865 1.005911 0.750000
v -4.238865 1.005911 -0.750000
v -4.181379 2.475438 -0.750000
v -4.181379 2.475438 0.750000
v -2.363939 1.438580 0.750000
v -2.363939 1.438580 -0.750000
v -2.363939 3.168005 -0.750000
v -2.363939 3.168005 0.750000
v -0.537743 1.822762 0.750000
v -0.537743 1.822762 -0.750000
v -0.537743 3.315249 -0.750000
v -0.537743 3.315249 0.750000
v 1.340452 2.019510 0.750000
v 1.340452 2.019510 -0.750000
v 1.340452 3.293724 -0.750000
v 1.340452 3.293724 0.750000
v 3.295195 2.087980 0.750000
v 3.295195 2.087980 -0.750000
v 3.059969 3.182315 -0.750000
v 3.059969 3.182315 0.750000
v -5.270274 1.586452 0.750000
v -4.211672 1.701069 0.750000
v -3.286094 2.020164 0.750000
v -2.363939 2.256682 0.750000
v -1.278870 2.451235 0.750000
v -0.537743 2.528781 0.750000
v 0.573948 2.602814 0.750000
v 1.340452 2.622276 0.750000
v 2.106956 2.631533 0.750000
v 3.183922 2.605654 0.750000
v 3.941914 2.565290 0.750000
v 3.941914 2.565290 -0.750000
v 3.183922 2.605654 -0.750000
v 2.106956 2.631533 -0.750000
v 1.340452 2.622276 -0.750000
v 0.573948 2.602814 -0.750000
v -0.537743 2.528781 -0.750000
v -1.278870 2.451235 -0.750000
v -2.363939 2.256683 -0.750000
v -3.286094 2.020164 -0.750000
v -4.211671 1.701069 -0.750000
v -5.270274 1.586452 -0.750000
v -2.497552 1.130304 0.500000
v 3.502448 1.130304 0.500000
v -2.497552 2.130303 0.500000
v 3.502448 2.130303 0.500000
v -2.497552 2.130303 -0.500000
v 3.502448 2.130303 -0.500000
v -2.497552 1.130304 -0.500000
v 3.502448 1.130304 -0.500000
v -4.796945 0.016147 0.750000
v -3.584241 0.016147 0.750000
v -0.900000 0.016147 0.750000
v 0.900000 0.016147 0.750000
v 2.700000 0.016147 0.750000
v 4.627747 0.016147 0.750000
v -5.448248 1.016147 0.537490
v -3.584241 1.556924 0.537490
v -0.929388 1.081097 0.537490
v 0.900000 0.783168 0.537490
v 2.700000 0.640509 0.537490
v 3.875188 0.646723 0.537490
v -5.448248 1.016147 -0.537490
v -3.584241 1.556924 -0.537490
v -0.929388 1.081097 -0.537490
v 0.900000 0.783168 -0.537490
v 2.700000 0.640509 -0.537490
v 3.875188 0.646723 -0.537490
v -4.796945 0.016147 -0.750000
v -3.584241 0.016147 -0.750000
v -0.900000 0.016147 -0.750000
v 0.900000 0.016147 -0.750000
v 2.700000 0.016147 -0.750000
v 4.627747 0.016147 -0.750000
v -4.907724 0.186235 0.750000
v -3.584241 0.186235 0.750000
v -0.900000 0.186235 0.750000
v 0.900000 0.186235 0.750000
v 2.700000 0.186235 0.750000
v 4.699768 0.238085 0.750000
v 4.699768 0.238085 -0.750000
v 2.700000 0.186235 -0.750000
v 0.900000 0.186235 -0.750000
v -0.900000 0.186235 -0.750000
v -3.584241 0.186235 -0.750000
v -4.907724 0.186235 -0.750000
v -5.080997 0.452275 -0.750000
v -3.584241 0.452275 -0.750000
v -0.900000 0.452275 -0.750000
v 0.900000 0.452275 -0.750000
v 2.700000 0.452275 -0.750000
v 4.326549 0.560091 -0.750000
v 4.326549 0.560091 0.750000
v 2.700000 0.452275 0.750000
v 0.900000 0.452275 0.750000
v -0.900000 0.452275 0.750000
v -3.584241 0.452275 0.750000
v -5.080997 0.452275 0.750000
v -4.846249 1.526935 0.537490
v -4.350587 0.452275 0.750000
v -4.261870 0.186235 0.750000
v -4.205151 0.016147 0.750000
v -4.205151 0.016147 -0.750000
v -4.261870 0.186235 -0.750000
v -4.350587 0.452275 -0.750000
v -4.846249 1.526935 -0.537490
vt 0.244664 0.155145
vt 0.286072 0.136611
vt 0.290783 0.196359
vt 0.242327 0.212879
vt 0.242115 0.267094
vt 0.293609 0.255057
vt 0.292809 0.322901
vt 0.242784 0.329184
vt 0.243598 0.372004
vt 0.291032 0.368592
vt 0.287068 0.436379
vt 0.243483 0.436712
vt 0.243410 0.481917
vt 0.284031 0.482865
vt 0.280445 0.529179
vt 0.243195 0.527211
vt 0.242651 0.583973
vt 0.276248 0.594231
vt 0.242833 0.655659
vt 0.243233 0.619396
vt 0.154386 0.155280
vt 0.156172 0.212073
vt 0.155798 0.266405
vt 0.154542 0.329034
vt 0.153339 0.371356
vt 0.152822 0.436471
vt 0.152484 0.481454
vt 0.152308 0.526894
vt 0.152405 0.583592
vt 0.151606 0.619287
vt 0.107847 0.195410
vt 0.113196 0.135747
vt 0.104614 0.322014
vt 0.104465 0.254023
vt 0.109252 0.435621
vt 0.105924 0.367675
vt 0.115045 0.528530
vt 0.111866 0.482123
vt 0.120663 0.639252
vt 0.118747 0.593691
vt 0.323887 0.119464
vt 0.075499 0.118277
vt 0.063364 0.179152
vt 0.335441 0.180477
vt 0.340489 0.242512
vt 0.057715 0.241084
vt 0.059508 0.314243
vt 0.337995 0.315604
vt 0.333492 0.364785
vt 0.063508 0.363475
vt 0.070403 0.434437
vt 0.325930 0.435590
vt 0.320401 0.483647
vt 0.075490 0.482576
vt 0.081611 0.530077
vt 0.313866 0.531022
vt 0.306568 0.603459
vt 0.088353 0.602668
vt 0.093191 0.650253
vt 0.301339 0.650965
vt 0.153618 0.069304
vt 0.246606 0.070226
vt 0.246931 0.101601
vt 0.152680 0.100661
vt 0.153780 0.057686
vt 0.246671 0.058606
vt 0.813242 0.305844
vt 0.822973 0.662172
vt 0.792012 0.711305
vt 0.739383 0.312425
vt 0.915585 0.708141
vt 0.954107 0.309777
vt 0.876275 0.663954
vt 0.887100 0.306574
vt 0.601074 0.106489
vt 0.613893 0.098628
vt 0.634926 0.154258
vt 0.619369 0.159228
vt 0.618908 0.342957
vt 0.601757 0.342552
vt 0.600779 0.459365
vt 0.583637 0.457682
vt 0.594220 0.573806
vt 0.576660 0.570922
vt 0.569887 0.693925
vt 0.559984 0.665706
vt 0.422026 0.105907
vt 0.435367 0.112958
vt 0.420322 0.164556
vt 0.404314 0.160135
vt 0.442073 0.342244
vt 0.425035 0.342720
vt 0.459104 0.456389
vt 0.441931 0.457946
vt 0.465257 0.570565
vt 0.447778 0.573777
vt 0.484702 0.667157
vt 0.475666 0.696673
vt 0.940327 0.890326
vt 0.412150 0.102671
vt 0.902983 0.980095
vt 0.645179 0.151753
vt 0.414250 0.343041
vt 0.742383 0.889977
vt 0.431122 0.458928
vt 0.634581 0.889787
vt 0.437302 0.576083
vt 0.526780 0.889597
vt 0.466564 0.705227
vt 0.411327 0.889394
vt 0.460545 0.069300
vt 0.572462 0.062988
vt 0.564597 0.076271
vt 0.469209 0.080985
vt 0.454313 0.060807
vt 0.577886 0.053499
vt 0.491195 0.133936
vt 0.486342 0.185537
vt 0.485006 0.338847
vt 0.485013 0.454054
vt 0.484211 0.567426
vt 0.493024 0.640417
vt 0.551074 0.637607
vt 0.557503 0.568459
vt 0.557795 0.455356
vt 0.559060 0.339608
vt 0.554711 0.184070
vt 0.546505 0.131929
vt 0.539510 0.102040
vt 0.496189 0.100793
vt 0.925745 0.770910
vt 0.973184 0.770202
vt 0.927085 0.860735
vt 0.974524 0.860027
vt 0.808557 0.772659
vt 0.854586 0.771972
vt 0.809897 0.862483
vt 0.855926 0.861797
vt 0.695444 0.774346
vt 0.762514 0.773346
vt 0.696784 0.864171
vt 0.763854 0.863170
vt 0.583660 0.776014
vt 0.650346 0.775019
vt 0.585000 0.865839
vt 0.651687 0.864844
vt 0.468426 0.777734
vt 0.526844 0.776862
vt 0.469767 0.867558
vt 0.528184 0.866687
vt 0.402930 0.778711
vt 0.404270 0.868536
vt 0.124111 0.070107
vt 0.151939 0.655562
vt 0.151992 0.685086
vt 0.273971 0.639716
vt 0.242725 0.685180
vt 0.275687 0.071137
vt 0.264600 0.075321
vt 0.135173 0.074348
vt 0.940169 0.980161
vt 0.393900 0.157833
vt 0.623608 0.095020
vt 0.903141 0.890261
vt 0.411169 0.979228
vt 0.578927 0.701673
vt 0.975611 0.980223
vt 0.975770 0.890389
vt 0.526621 0.979432
vt 0.634423 0.979622
vt 0.742224 0.979812
vt 0.604760 0.575976
vt 0.611563 0.460459
vt 0.629740 0.343255
vn 0.000000 0.000000 1.000000
vn -0.000000 0.000000 1.000000
vn -0.000000 0.000000 1.000000
vn 0.000000 0.000000 1.000000
vn 0.000000 0.000000 1.000000
vn 0.000000 0.000000 1.000000
vn 0.000000 0.000000 1.000000
vn 0.000000 0.000000 1.000000
vn 0.000000 0.000000 1.000000
vn 0.000000 0.000000 1.000000
vn 0.000000 0.000000 1.000000
vn 0.000000 0.000000 1.000000
vn 0.000000 0.000000 1.000000
vn 0.000000 0.000000 1.000000
vn 0.000000 0.000000 1.000000
vn 0.000000 0.000000 1.000000
vn 0.000000 0.000000 1.000000
vn 0.000000 0.000000 1.000000
vn 0.000000 0.000000 1.000000
vn 0.000000 0.000000 1.000000
vn -0.466261 0.884647 0.000000
vn -0.466261 0.884647 0.000000
vn -0.356089 0.934452 0.000000
vn -0.356089 0.934452 0.000000
vn -0.187713 0.982224 0.000000
vn -0.187713 0.982224 0.000000
vn -0.080368 0.996765 0.000000
vn -0.080368 0.996765 0.000000
vn -0.010634 0.999944 0.000000
vn -0.010634 0.999944 0.000000
vn 0.011460 0.999934 0.000000
vn 0.011460 0.999934 0.000000
vn 0.046019 0.998941 0.000000
vn 0.046019 0.998941 0.000000
vn 0.064655 0.997908 0.000000
vn 0.064655 0.997908 0.000000
vn 0.099716 0.995016 0.000000
vn 0.099716 0.995016 0.000000
vn 0.146890 0.989153 0.000000
vn 0.146890 0.989153 0.000000
vn -0.000000 0.000000 -1.000000
vn -0.000000 0.000000 -1.000000
vn 0.000000 0.000000 -1.000000
vn 0.000000 0.000000 -1.000000
vn -0.000000 0.000000 -1.000000
vn -0.000000 0.000000 -1.000000
vn 0.000000 0.000000 -1.000000
vn 0.000000 0.000000 -1.000000
vn 0.000000 0.000000 -1.000000
vn 0.000000 0.000000 -1.000000
vn 0.000000 0.000000 -1.000000
vn 0.000000 0.000000 -1.000000
vn 0.000000 0.000000 -1.000000
vn 0.000000 0.000000 -1.000000
vn 0.000000 0.000000 -1.000000
vn 0.000000 0.000000 -1.000000
vn 0.000000 0.000000 -1.000000
vn 0.000000 0.000000 -1.000000
vn 0.000000 0.000000 -1.000000
vn 0.000000 0.000000 -1.000000
vn -0.089511 -0.995986 0.000000
vn -0.089511 -0.995986 0.000000
vn 0.224857 -0.974392 0.000000
vn 0.224857 -0.974392 0.000000
vn 0.229681 -0.973266 0.000000
vn 0.229681 -0.973266 0.000000
vn 0.205867 -0.978580 0.000000
vn 0.205867 -0.978580 0.000000
vn 0.144182 -0.989551 0.000000
vn 0.144182 -0.989551 0.000000
vn 0.104184 -0.994558 0.000000
vn 0.104184 -0.994558 0.000000
vn 0.076680 -0.997056 0.000000
vn 0.076680 -0.997056 0.000000
vn 0.035006 -0.999387 0.000000
vn 0.035006 -0.999387 0.000000
vn 0.009201 -0.999958 0.000000
vn 0.009201 -0.999958 0.000000
vn 0.009050 -0.999959 0.000000
vn 0.009050 -0.999959 0.000000
vn 0.916125 0.400893 0.000000
vn 0.916125 0.400893 0.000000
vn 0.875667 0.482915 0.000000
vn 0.875667 0.482915 0.000000
vn -0.913908 0.405921 0.000000
vn -0.913908 0.405921 0.000000
vn -0.834426 0.551120 0.000000
vn -0.834426 0.551120 0.000000
vn -0.353860 -0.935299 0.000000
vn -0.353860 -0.935299 0.000000
vn 0.000000 0.000000 -1.000000
vn 0.000000 0.000000 -1.000000
vn -0.492140 0.870516 0.000000
vn -0.492140 0.870516 0.000000
vn 0.000000 0.000000 1.000000
vn 0.000000 0.000000 1.000000
vn 0.000000 0.000000 1.000000
vn -0.000000 0.000000 1.000000
vn -0.000000 0.000000 1.000000
vn 0.000000 0.000000 1.000000
vn 0.000000 0.000000 1.000000
vn 0.000000 0.000000 1.000000
vn 0.000000 0.000000 1.000000
vn 0.000000 0.000000 1.000000
vn 0.000000 0.000000 1.000000
vn 0.000000 0.000000 1.000000
vn 0.000000 0.000000 1.000000
vn 0.955332 0.295536 0.000000
vn 0.955332 0.295536 0.000000
vn 0.000000 0.000000 -1.000000
vn 0.000000 0.000000 -1.000000
vn 0.000000 0.000000 -1.000000
vn 0.000000 0.000000 -1.000000
vn 0.000000 0.000000 -1.000000
vn 0.000000 0.000000 -1.000000
vn -0.000000 0.000000 -1.000000
vn -0.000000 0.000000 -1.000000
vn -0.000000 0.000000 -1.000000
vn -0.000000 0.000000 -1.000000
vn 0.000000 0.000000 -1.000000
vn -0.999052 -0.043527 0.000000
vn -0.999052 -0.043527 0.000000
vn 0.000000 0.000000 1.000000
vn 0.000000 0.000000 1.000000
vn 0.000000 0.000000 1.000000
vn 0.000000 0.000000 1.000000
vn 0.000000 0.000000 -1.000000
vn 0.000000 0.000000 -1.000000
vn 0.000000 0.000000 -1.000000
vn 0.000000 0.000000 -1.000000
vn 0.000000 -1.000000 0.000000
vn 0.000000 -1.000000 0.000000
vn 0.000000 -1.000000 0.000000
vn 0.000000 -1.000000 0.000000
vn 1.000000 0.000000 0.000000
vn 1.000000 0.000000 0.000000
vn 1.000000 0.000000 0.000000
vn 1.000000 0.000000 0.000000
vn -0.019038 0.164511 0.986192
vn 0.000000 0.000000 1.000000
vn 0.000000 0.000000 1.000000
vn 0.010777 0.178084 0.983956
vn 0.000000 0.000000 1.000000
vn 0.018420 0.213738 0.976717
vn 0.000000 0.000000 1.000000
vn 0.019351 0.317521 0.948054
vn 0.000000 0.000000 1.000000
vn 0.001834 0.364443 0.931224
vn 0.000000 0.000000 1.000000
vn -0.004300 0.105657 0.994393
vn 0.000000 0.000000 -1.000000
vn -0.019038 0.164511 -0.986192
vn 0.010777 0.178084 -0.983956
vn 0.000000 0.000000 -1.000000
vn 0.018420 0.213738 -0.976717
vn 0.000000 0.000000 -1.000000
vn 0.019351 0.317521 -0.948054
vn 0.000000 0.000000 -1.000000
vn 0.001834 0.364443 -0.931224
vn 0.000000 0.000000 -1.000000
vn -0.004300 0.105656 -0.994393
vn 0.000000 0.000000 -1.000000
vn 0.000000 -1.000000 0.000000
vn 0.000000 -1.000000 0.000000
vn 0.000000 -1.000000 0.000000
vn 0.000000 -1.000000 0.000000
vn 0.000000 -1.000000 0.000000
vn 0.000000 -1.000000 0.000000
vn 0.000000 -1.000000 0.000000
vn 0.000000 -1.000000 0.000000
vn 0.000000 -1.000000 0.000000
vn 0.000000 -1.000000 0.000000
vn 0.000000 -1.000000 0.000000
vn 0.000000 -1.000000 0.000000
vn 0.874834 0.484423 0.000000
vn 0.874834 0.484423 0.000000
vn 0.498390 0.866953 0.000000
vn 0.498390 0.866953 0.000000
vn -0.837944 -0.545756 0.000000
vn -0.837944 -0.545756 0.000000
vn -0.837944 -0.545756 0.000000
vn -0.837944 -0.545756 0.000000
vn 0.000000 0.000000 1.000000
vn 0.000000 0.000000 1.000000
vn 0.000000 0.000000 1.000000
vn 0.000000 0.000000 1.000000
vn 0.000000 0.000000 1.000000
vn 0.000000 0.000000 1.000000
vn 0.951172 -0.308662 0.000000
vn 0.951172 -0.308662 0.000000
vn 0.000000 0.000000 -1.000000
vn 0.000000 0.000000 -1.000000
vn 0.000000 0.000000 -1.000000
vn 0.000000 0.000000 -1.000000
vn 0.000000 0.000000 -1.000000
vn 0.000000 0.000000 -1.000000
vn -0.837944 -0.545756 0.000000
vn -0.837944 -0.545756 0.000000
vn -0.033906 0.198730 -0.979468
vn 0.012956 0.222079 -0.974943
vn 0.024152 0.278553 -0.960117
vn 0.030602 0.491361 -0.870418
vn 0.003602 0.709651 -0.704545
vn -0.033481 0.822644 -0.567570
vn 0.188493 0.982075 0.000000
vn 0.188493 0.982074 0.000000
vn -0.033481 0.822645 0.567570
vn 0.003602 0.709651 0.704545
vn 0.030602 0.491361 0.870418
vn 0.024152 0.278553 0.960117
vn 0.012956 0.222079 0.974943
vn -0.033906 0.198730 0.979468
vn -0.837944 -0.545756 0.000000
vn -0.837944 -0.545756 0.000000
vn -0.071677 0.186973 0.979747
vn -0.080610 0.210275 0.974313
vn 0.000000 0.000000 1.000000
vn 0.000000 0.000000 1.000000
vn 0.000000 -1.000000 0.000000
vn 0.000000 -1.000000 0.000000
vn 0.000000 0.000000 -1.000000
vn 0.000000 0.000000 -1.000000
vn -0.071677 0.186973 -0.979747
vn -0.080610 0.210275 -0.974313
vn -0.646978 0.762509 0.000000
vn -0.646978 0.762509 0.000000
vn -0.646978 0.762509 0.000000
vn -0.646978 0.762509 0.000000
vn -0.023757 0.999718 0.000000
vn -0.023757 0.999718 0.000000
vn -0.023757 0.999718 0.000000
vn -0.023757 0.999718 0.000000
vn 0.176418 0.984315 0.000000
vn 0.176418 0.984315 0.000000
vn 0.176418 0.984315 0.000000
vn 0.176418 0.984315 0.000000
vn 0.160740 0.986997 0.000000
vn 0.160740 0.986997 0.000000
vn 0.160740 0.986997 0.000000
vn 0.160740 0.986997 0.000000
vn 0.079007 0.996874 0.000000
vn 0.079007 0.996874 0.000000
vn 0.079007 0.996874 0.000000
vn 0.079007 0.996874 0.000000
vn -0.005287 0.999986 0.000000
vn -0.005287 0.999986 0.000000
vn -0.005287 0.999986 0.000000
vn -0.005287 0.999986 0.000000
s 1
g pCube4
usemtl initialShadingGroup
f 28/1/1 46/2/2 47/3/3 8/4/4
f 32/5/5 48/6/6 49/7/7 9/8/8
f 36/9/9 50/10/10 51/11/11 10/12/12
f 40/13/13 52/14/14 53/15/15 11/16/16
f 44/17/17 54/18/18 55/156/19 12/20/20
s 2
f 27/21/21 28/1/22 8/4/23 14/22/24
f 31/23/25 32/5/26 9/8/27 15/24/28
f 35/25/29 36/9/30 10/12/31 16/26/32
f 39/27/33 40/13/34 11/16/35 17/28/36
f 43/29/37 44/17/38 12/20/39 18/30/40
s 3
f 64/31/41 65/32/42 27/21/43 14/22/44
f 62/33/45 63/34/46 31/23/47 15/24/48
f 60/35/49 61/36/50 35/25/51 16/26/52
f 58/37/53 59/38/54 39/27/55 17/28/56
f 56/39/57 57/40/58 43/29/59 18/30/60
s 8
f 25/149/61 26/147/62 20/148/63 2/150/64
f 29/145/65 30/143/66 21/144/67 3/146/68
f 33/141/69 34/139/70 22/140/71 4/142/72
f 37/137/73 38/135/74 23/136/75 5/138/76
f 41/133/77 42/131/78 24/132/79 6/134/80
s 9
f 55/19/81 56/154/82 18/30/83 12/20/84
s 10
f 66/61/85 45/62/86 7/63/87 13/64/88
s 8
f 19/151/89 26/147/62 25/149/61 1/152/90
s 3
f 13/64/91 27/21/43 65/32/42 66/160/92
s 2
f 7/63/93 28/1/22 27/21/21 13/64/94
s 1
f 45/159/95 46/2/2 28/1/1 7/63/96
s 8
f 20/148/63 30/143/66 29/145/65 2/150/64
s 3
f 14/22/44 31/23/47 63/34/46 64/31/41
s 2
f 8/4/23 32/5/26 31/23/25 14/22/24
s 1
f 47/3/3 48/6/6 32/5/5 8/4/4
s 8
f 21/144/67 34/139/70 33/141/69 3/146/68
s 3
f 15/24/48 35/25/51 61/36/50 62/33/45
s 2
f 9/8/27 36/9/30 35/25/29 15/24/28
s 1
f 49/7/7 50/10/10 36/9/9 9/8/8
s 8
f 22/140/71 38/135/74 37/137/73 4/142/72
s 3
f 16/26/52 39/27/55 59/38/54 60/35/49
s 2
f 10/12/31 40/13/34 39/27/33 16/26/32
s 1
f 51/11/11 52/14/14 40/13/13 10/12/12
s 8
f 23/136/75 42/131/78 41/133/77 5/138/76
s 3
f 17/28/56 43/29/59 57/40/58 58/37/53
s 2
f 11/16/35 44/17/38 43/29/37 17/28/36
s 1
f 53/15/15 54/18/18 44/17/17 11/16/16
f 1/158/97 25/41/98 46/2/2 45/159/95
f 47/3/3 46/2/2 25/41/98 2/44/99
f 2/44/99 29/45/100 48/6/6 47/3/3
f 49/7/7 48/6/6 29/45/100 3/48/101
f 3/48/101 33/49/102 50/10/10 49/7/7
f 51/11/11 50/10/10 33/49/102 4/52/103
f 4/52/103 37/53/104 52/14/14 51/11/11
f 53/15/15 52/14/14 37/53/104 5/56/105
f 5/56/105 41/57/106 54/18/18 53/15/15
f 55/156/19 54/18/18 41/57/106 6/60/107
s 9
f 6/157/108 24/155/109 56/154/82 55/19/81
s 3
f 42/58/110 57/40/58 56/39/57 24/59/111
f 58/37/53 57/40/58 42/58/110 23/55/112
f 38/54/113 59/38/54 58/37/53 23/55/112
f 60/35/49 59/38/54 38/54/113 22/51/114
f 34/50/115 61/36/50 60/35/49 22/51/114
f 62/33/45 61/36/50 34/50/115 21/47/116
f 30/46/117 63/34/46 62/33/45 21/47/116
f 64/31/41 63/34/46 30/46/117 20/43/118
f 26/42/119 65/32/42 64/31/41 20/43/118
f 66/160/92 65/32/42 26/42/119 19/153/120
s 10
f 19/65/121 1/66/122 45/62/86 66/61/85
s off
f 67/67/123 68/68/124 70/69/125 69/70/126
f 71/72/127 72/71/128 74/73/129 73/74/130
f 73/74/131 74/73/132 68/68/133 67/67/134
f 68/68/135 74/73/136 72/71/137 70/69/138
s 11
f 124/75/139 125/76/140 100/77/141 121/78/142
f 100/77/141 101/79/143 120/80/144 121/78/142
f 101/79/143 102/81/145 119/82/146 120/80/144
f 102/81/145 103/83/147 118/84/148 119/82/146
f 103/83/147 104/85/149 117/86/150 118/84/148
s 12
f 128/87/151 129/88/152 112/89/153 109/90/154
f 112/89/153 113/91/155 108/92/156 109/90/154
f 113/91/155 114/93/157 107/94/158 108/92/156
f 114/93/157 115/95/159 106/96/160 107/94/158
f 115/95/159 116/97/161 105/98/162 106/96/160
s 13
f 126/99/163 127/161/164 94/101/165 76/164/166
f 94/101/165 95/171/167 77/104/168 76/164/166
f 95/171/167 96/170/169 78/106/170 77/104/168
f 96/170/169 97/169/171 79/108/172 78/106/170
f 97/169/171 98/165/173 80/110/174 79/108/172
s 14
f 104/85/175 105/98/176 116/97/177 117/86/178
s 15
f 110/111/179 99/112/180 122/113/181 111/114/182
s 11
f 125/76/140 126/163/183 76/102/184 100/77/141
f 76/102/184 77/174/185 101/79/143 100/77/141
f 77/174/185 78/173/186 102/81/145 101/79/143
f 78/173/186 79/172/187 103/83/147 102/81/145
f 79/172/187 80/166/188 104/85/149 103/83/147
s 14
f 80/166/189 98/109/190 105/98/176 104/85/175
s 12
f 106/96/160 105/98/162 98/109/191 97/107/192
f 107/94/158 106/96/160 97/107/192 96/105/193
f 108/92/156 107/94/158 96/105/193 95/103/194
f 109/90/154 108/92/156 95/103/194 94/162/195
f 127/100/196 128/87/151 109/90/154 94/162/195
s 15
f 93/115/197 75/116/198 99/112/180 110/111/179
s 12
f 129/88/152 130/117/199 88/118/200 112/89/153
f 88/118/200 89/119/201 113/91/155 112/89/153
f 89/119/201 90/120/202 114/93/157 113/91/155
f 90/120/202 91/121/203 115/95/159 114/93/157
f 91/121/203 92/122/204 116/97/161 115/95/159
s 14
f 117/86/178 116/97/177 92/122/205 86/123/206
s 11
f 118/84/148 117/86/150 86/123/207 85/124/208
f 119/82/146 118/84/148 85/124/208 84/125/209
f 120/80/144 119/82/146 84/125/209 83/126/210
f 121/78/142 120/80/144 83/126/210 82/127/211
f 123/128/212 124/75/139 121/78/142 82/127/211
s 15
f 111/114/182 122/113/181 81/129/213 87/130/214
s 11
f 122/113/215 124/75/139 123/128/212 81/129/216
f 99/112/217 125/76/140 124/75/139 122/113/215
f 75/116/218 126/163/183 125/76/140 99/112/217
s 13
f 93/167/219 127/161/164 126/99/163 75/168/220
s 12
f 110/111/221 128/87/151 127/100/196 93/115/222
f 111/114/223 129/88/152 128/87/151 110/111/221
f 87/130/224 130/117/199 129/88/152 111/114/223
s off
f 81/129/225 123/128/226 130/117/227 87/130/228
f 123/128/229 82/127/230 88/118/231 130/117/232
f 82/127/233 83/126/234 89/119/235 88/118/236
f 83/126/237 84/125/238 90/120/239 89/119/240
f 84/125/241 85/124/242 91/121/243 90/120/244
f 85/124/245 86/123/246 92/122/247 91/121/248
